# xmcd
#
# Track frame offsets: 
#        150
#        13735
#        32632
#        56782
#        73387
#        85502
#        102822
#        128217
#        143865
#        168385
#        183427
#        197635
#
# Disc length: 2858 seconds
#
# Revision: 2
# Processed by: cddbd v1.5.1PL0 Copyright (c) Steve Scherf et al.
# Submitted via: ExactAudioCopy v0.95b3
#
DISCID=a60b280c
DTITLE=Sugar Ray and the Blue Tones - Don't Stand in my way
DYEAR=1991
DGENRE=Blues
TTITLE0=Your Red Wagon
TTITLE1=Don't stand in my way
TTITLE2=Moment of Passion
TTITLE3=Take it Easy
TTITLE4=Fast Boogie
TTITLE5=Mudcat's Blues
TTITLE6=The Arsonist
TTITLE7=One moment's Ecstasy
TTITLE8=F. Lee Bailey Blues
TTITLE9=Lasting Love
TTITLE10=The Helmet (Bluetone March)
TTITLE11=Story of My Life
EXTD=0\n\n\nsubmitted by Stamppot
EXTT0=
EXTT1=
EXTT2=
EXTT3=
EXTT4=
EXTT5=
EXTT6=
EXTT7=
EXTT8=
EXTT9=
EXTT10=
EXTT11=
PLAYORDER=
